# xmcd
# 
# Track frame offsets:
#     183
#     9365
#     21665
#     37298
#     49888
#     61635
#     77763
#     89545
#     112425
#     124253
#     136410
#     148508
#     154425
# 
# Disc length: 2392
# 
# Revision: 5
# Processed by: cddbd v1.5.2PL0 Copyright (c) Steve Scherf et al.
# Submitted via: fre:ac v1.0.31
# 
DISCID=c009560d
DTITLE=Beatles - Sgt. Peppers Lonely Hearts Club Band
DYEAR=0
DGENRE=Beat
TTITLE0=Sgt. Pepper's Lonely Hearts Club Band
TTITLE1=With A Little Help From My Friends
TTITLE2=Lucy In The Sky With Diamonds
TTITLE3=Getting Better
TTITLE4=Fixing A Hole
TTITLE5=She's Leaving Home
TTITLE6=Being For The Benefit Of Mr. Kite
TTITLE7=Within You Without You
TTITLE8=When I'm Sixty Four
TTITLE9=Lovely Rita
TTITLE10=Good Morning, Good Morning
TTITLE11=Sgt. Pepper's Lonely Hearts Club Band ( Reprise )
TTITLE12=A Day In The Life
EXTD=
EXTT0=
EXTT1=
EXTT2=
EXTT3=
EXTT4=
EXTT5=
EXTT6=
EXTT7=
EXTT8=
EXTT9=
EXTT10=
EXTT11=
EXTT12=
PLAYORDER=
